<svg width="18" height="11" viewBox="0 0 18 11" fill="none" xmlns="http://www.w3.org/2000/svg">
<path d="M16.2929 10.2071C16.6834 10.5976 17.3166 10.5976 17.7071 10.2071C18.0976 9.81658 18.0976 9.18342 17.7071 8.79289L16.2929 10.2071ZM9 1.5L9.70711 0.792893C9.31658 0.402369 8.68342 0.402369 8.29289 0.792893L9 1.5ZM0.292892 8.79289C-0.0976315 9.18342 -0.0976315 9.81658 0.292892 10.2071C0.683418 10.5976 1.31658 10.5976 1.70711 10.2071L0.292892 8.79289ZM17.7071 8.79289L9.70711 0.792893L8.29289 2.20711L16.2929 10.2071L17.7071 8.79289ZM8.29289 0.792893L0.292892 8.79289L1.70711 10.2071L9.70711 2.20711L8.29289 0.792893Z" fill="#D2D2D3"/>
</svg>
