<svg width="153" height="32" viewBox="0 0 153 32" fill="none" xmlns="http://www.w3.org/2000/svg">
<g clip-path="url(#clip0)">
<path d="M5.93053 24.802C4.39292 24.802 3.03359 24.7798 1.67426 24.802C0.961166 24.8243 0.916598 24.4009 0.916598 23.8661C0.916598 21.1252 0.916598 18.3619 0.916598 15.621C0.916598 12.6795 0.938882 9.76026 0.894314 6.81875C0.87203 5.99424 1.11716 5.68226 1.96395 5.74911C2.96674 5.81597 3.96952 5.70455 4.97231 5.79368C5.39571 5.81597 5.79682 6.12794 6.15337 6.43992C8.96117 5.74911 11.6798 5.94967 14.0642 7.88839C14.6659 8.37864 15.0002 7.95524 15.4013 7.68783C19.2119 4.99145 24.2704 5.74911 26.8108 9.60427C27.5684 10.7408 28.1032 12.2338 28.1701 13.5931C28.3484 17.2477 28.2369 20.9246 28.2369 24.6906C26.6325 24.6906 25.0726 24.6906 23.3121 24.6906C23.3121 24.3341 23.3121 23.933 23.3121 23.5541C23.3121 20.5903 23.3121 17.6266 23.3121 14.6405C23.3121 12.5235 22.0642 11.075 20.2369 11.0527C18.3651 11.0305 17.0726 12.5012 17.0726 14.685C17.0726 17.6266 17.0726 20.5458 17.0726 23.4873C17.0726 23.8884 17.0726 24.2895 17.0726 24.7352C15.4013 24.7352 13.8637 24.7352 12.2146 24.7352C12.1924 24.3118 12.1701 23.9107 12.1701 23.5318C12.1701 20.6349 12.1701 17.738 12.1478 14.841C12.1478 14.2839 12.0809 13.7268 11.925 13.192C11.5016 11.7658 9.96395 10.8299 8.56005 11.0527C7.0893 11.2979 5.95281 12.5681 5.93053 14.0611C5.90824 17.1809 5.93053 20.3006 5.93053 23.4204C5.93053 23.8438 5.93053 24.2449 5.93053 24.802Z" fill="white"/>
<path opacity="0.5" d="M115.716 29.4594C116.875 28.2338 117.967 27.0305 119.081 25.8494C122.112 28.0555 125.543 26.6962 126.323 23.9998C124.897 24.2227 123.449 24.6015 121.978 24.6238C117.41 24.6906 113.398 21.0806 112.775 16.4678C112.151 11.9218 115.181 7.3536 119.571 6.17254C125.788 4.50123 131.627 8.95805 131.627 15.3982C131.627 18.2951 131.694 21.192 131.449 24.0667C131.137 27.7659 127.727 31.1308 124.073 31.7993C120.908 32.4009 118.19 31.5319 115.716 29.4594ZM122.178 10.8076C119.749 10.8076 117.699 12.8355 117.722 15.2422C117.722 17.6266 119.839 19.7213 122.223 19.7213C124.652 19.7213 126.613 17.7157 126.613 15.2199C126.613 12.7018 124.697 10.8076 122.178 10.8076Z" fill="white"/>
<path d="M76.6158 6.86332C76.4821 5.83825 77.0392 5.7714 77.7523 5.79369C79.0002 5.83825 80.2704 5.81597 81.6074 5.81597C81.6074 12.1669 81.6074 18.4065 81.6074 24.6683C79.5573 25.1586 76.9055 24.8912 76.4821 24.1335C71.4236 26.3396 66.7216 24.2895 64.4264 21.0137C61.9974 17.582 62.1311 12.7686 64.6938 9.51513C67.457 6.01653 71.9361 4.96917 76.6158 6.86332ZM72.2704 20.011C74.8999 20.011 76.9055 17.9831 76.8609 15.3536C76.8163 12.8355 74.7439 10.8299 72.2258 10.8299C69.73 10.8522 67.6576 12.9469 67.6576 15.4427C67.6576 17.9831 69.73 20.011 72.2704 20.011Z" fill="white"/>
<path d="M35.8358 17.738C37.1729 20.4121 40.4709 20.7686 43.1004 18.6962C44.2369 19.7436 45.3511 20.8132 46.4876 21.8605C44.5712 24.7798 39.1562 25.7603 35.4793 23.9107C31.1339 21.7046 29.1506 16.7352 30.8219 12.1447C32.4932 7.55414 37.3066 4.96918 42.0977 6.2171C46.3539 7.3313 49.9417 11.1865 49.0726 17.738C44.7049 17.738 40.3372 17.738 35.8358 17.738ZM35.769 12.9915C38.5099 12.9915 41.0057 12.9915 43.6798 12.9915C42.6325 11.4984 41.3623 10.7853 39.7133 10.7853C38.0642 10.7853 36.794 11.4316 35.769 12.9915Z" fill="white"/>
<path opacity="0.5" d="M140.206 24.7575C138.49 24.7575 136.908 24.7575 135.259 24.7575C135.237 24.3786 135.192 24.0667 135.192 23.7324C135.192 18.1168 135.215 12.5235 135.17 6.90789C135.17 6.0611 135.371 5.70455 136.284 5.7714C137.532 5.83826 138.802 5.79369 140.117 5.79369C140.184 6.21709 140.229 6.55135 140.295 6.99703C142.301 6.26165 144.307 6.1948 146.357 6.81876C149.41 7.75469 151.905 10.7408 152.017 13.9274C152.128 17.27 152.106 20.6126 152.106 23.9552C152.106 24.2449 151.749 24.7575 151.549 24.7798C150.123 24.8466 148.674 24.8243 147.114 24.8243C147.114 21.5708 147.114 18.4065 147.114 15.2644C147.114 14.7519 147.047 14.2171 146.891 13.7491C146.379 12.1669 144.708 11.1419 143.17 11.4093C141.32 11.7435 140.206 13.0137 140.206 14.841C140.206 18.0945 140.206 21.3703 140.206 24.7575Z" fill="white"/>
<path opacity="0.5" d="M88.1282 19.7658C90.6018 19.7658 92.897 19.7658 95.1923 19.7658C95.482 19.7658 95.8608 19.855 96.0614 19.7213C96.3956 19.5207 96.6408 19.1419 96.9305 18.8299C96.6185 18.5402 96.3288 18.0722 95.95 18.0054C94.7243 17.738 93.4318 17.7826 92.2731 17.3814C89.599 16.4455 87.9945 13.5486 88.5071 10.6962C88.975 8.11124 91.0697 5.88283 93.8552 5.72684C96.2174 5.59314 98.6018 5.61542 100.964 5.59314C101.142 5.59314 101.32 5.63771 101.543 5.65999C101.543 7.35358 101.543 9.02489 101.543 10.8522C100.184 10.8522 98.78 10.8522 97.3984 10.8522C96.5739 10.8522 95.7717 10.8745 94.9472 10.8522C94.2786 10.8299 93.677 10.9636 93.677 11.7213C93.6547 12.5681 94.3009 12.6795 94.9917 12.6572C96.6185 12.5904 98.1784 12.8355 99.5154 13.816C101.699 15.3982 102.613 18.1168 101.833 20.5904C100.964 23.3536 98.6909 24.958 95.5043 25.0249C93.3427 25.0695 91.2034 25.0026 89.0419 25.0472C88.3288 25.0695 88.0391 24.8689 88.0614 24.1112C88.1728 22.7073 88.1282 21.3034 88.1282 19.7658Z" fill="white"/>
<path d="M56.7606 -0.000183105C56.7606 2.07224 56.7606 3.94411 56.7606 5.90511C58.5211 5.90511 60.2147 5.90511 61.9974 5.90511C61.9974 7.48728 61.9974 8.98032 61.9974 10.6293C60.3038 10.6293 58.5879 10.6293 56.7829 10.6293C56.7829 12.3898 56.6269 14.0388 56.8275 15.621C57.1172 17.9163 58.7885 19.5207 61.0838 20.011C61.3957 20.0778 61.7077 20.1892 62.0866 20.2784C62.0866 21.6823 62.0866 23.0862 62.0866 24.5124C62.0866 24.6906 62.042 24.8689 62.0197 25.0249C58.276 25.4037 53.9306 22.5291 52.5266 18.6293C52.0364 17.27 51.8136 15.7547 51.7913 14.3062C51.7021 10.4065 51.7913 6.50678 51.7467 2.60706C51.7467 1.82711 51.9918 1.49285 52.7049 1.2923C53.9974 0.913466 55.2899 0.467783 56.7606 -0.000183105Z" fill="white"/>
<path opacity="0.5" d="M109.9 5.39258C109.9 11.9218 109.9 18.2951 109.9 24.7352C108.273 24.7352 106.713 24.7352 105.042 24.7352C105.02 24.4455 104.975 24.1558 104.975 23.8884C104.975 18.5848 104.975 13.2812 104.953 7.97754C104.953 7.28673 105.109 6.9079 105.844 6.72963C107.203 6.3508 108.496 5.86054 109.9 5.39258Z" fill="white"/>
</g>
<defs>
<clipPath id="clip0">
<rect width="153" height="32" fill="white" transform="translate(0.00012207 -0.000213623)"/>
</clipPath>
</defs>
</svg>
