<svg width="320" height="568" viewBox="0 0 320 568" fill="none" xmlns="http://www.w3.org/2000/svg">
<g style="mix-blend-mode:overlay" opacity="0.1">
<path d="M-242.222 527.172L-267.482 404.442L-144.752 379.182L-22.0219 353.921L3.23836 476.652L28.4986 599.382L-94.2317 624.642L-216.962 649.902L-242.222 527.172ZM-31.7205 483.728L-49.7668 396.047L-137.448 414.093L-225.128 432.14L-207.082 519.82L-189.036 607.501L-101.355 589.455L-13.6741 571.408L-31.7205 483.728ZM-172.123 512.744L-182.956 460.113L-130.324 449.28L-77.6931 438.448L-66.8606 491.079L-56.0281 543.71L-108.659 554.543L-161.291 565.375L-172.123 512.744ZM95.2072 567.325L91.5885 549.743L74.0067 553.362L56.4248 556.981L49.211 521.931L41.9971 486.882L59.579 483.263L77.1608 479.644L80.7795 497.226L84.3981 514.808L101.98 511.189L119.562 507.571L112.324 472.407L105.087 437.243L122.555 433.648L140.022 430.053L136.427 412.585L132.832 395.118L97.7826 402.332L62.7331 409.546L59.1144 391.964L55.4958 374.382L108.127 363.549L160.758 352.717L157.163 335.249L153.568 317.782L135.986 321.4L118.404 325.019L111.167 289.855L103.93 254.692L33.7165 269.143L-36.4966 283.594L-32.8779 301.176L-29.2592 318.758L-46.7269 322.353L-64.1945 325.948L-67.8132 308.366L-71.4319 290.784L-89.0137 294.403L-106.596 298.022L-102.977 315.603L-99.3582 333.185L-116.826 336.78L-134.293 340.376L-141.531 305.212L-148.768 270.048L-183.932 277.286L-219.095 284.523L-215.477 302.105L-211.858 319.687L-194.276 316.068L-176.694 312.449L-173.076 330.031L-169.457 347.613L-187.039 351.232L-204.621 354.85L-208.239 337.269L-211.858 319.687L-246.908 326.901L-281.957 334.114L-285.576 316.533L-289.194 298.951L-271.613 295.332L-254.031 291.713L-264.863 239.082L-275.696 186.451L-240.646 179.237L-205.597 172.023L-201.978 189.605L-198.359 207.187L-215.941 210.805L-233.523 214.424L-229.904 232.006L-226.286 249.588L-191.122 242.35L-155.958 235.113L-159.577 217.531L-163.196 199.949L-145.728 196.354L-128.261 192.759L-124.642 210.341L-121.023 227.923L-85.9737 220.709L-50.9242 213.495L-54.5429 195.913L-58.1616 178.331L-75.6293 181.927L-93.0969 185.522L-96.7156 167.94L-100.334 150.358L-82.8666 146.763L-65.399 143.168L-61.7803 160.75L-58.1616 178.331L-22.998 171.094L12.1657 163.857L15.7844 181.439L19.403 199.02L36.9848 195.402L54.5667 191.783L47.3293 156.619L40.092 121.456L4.92834 128.693L-30.2353 135.93L-41.0678 83.2991L-51.9004 30.6678L-34.3185 27.0492L-16.7367 23.4305L-20.3319 5.96279L-23.927 -11.5048L-41.5089 -7.88613L-59.0907 -4.26746L-62.7094 -21.8492L-66.3281 -39.4311L-31.1644 -46.6684L3.99924 -53.9058L-3.21461 -88.9553L-10.4285 -124.005L7.03922 -127.6L24.5068 -131.195L20.8881 -148.777L17.2694 -166.359L52.433 -173.596L87.5967 -180.833L91.2154 -163.252L94.834 -145.67L77.2522 -142.051L59.6704 -138.432L63.2656 -120.965L66.8608 -103.497L49.279 -99.8784L31.6972 -96.2598L38.9345 -61.0961L46.1718 -25.9325L63.7537 -29.5512L81.3354 -33.1698L77.7168 -50.7516L74.0981 -68.3335L91.6799 -71.9521L109.262 -75.5708L116.476 -40.5213L123.689 -5.47188L53.4764 8.97929L-16.7367 23.4305L-9.52285 58.48L-2.30901 93.5294L15.2728 89.9107L32.8546 86.2921L29.2594 68.8244L25.6643 51.3568L43.132 47.7616L60.5995 44.1664L64.1947 61.634L67.7899 79.1017L85.3717 75.483L102.953 71.8644L99.3583 54.3967L95.7631 36.9291L113.345 33.3104L130.927 29.6917L141.759 82.3231L152.592 134.954L135.01 138.573L117.428 142.192L113.81 124.61L110.191 107.028L92.609 110.647L75.0272 114.265L82.2646 149.429L89.5019 184.593L124.666 177.355L159.829 170.118L163.424 187.586L167.02 205.053L184.601 201.435L202.183 197.816L191.351 145.185L180.518 92.5533L215.568 85.3395L250.617 78.1256L254.236 95.7075L257.854 113.289L275.322 109.694L292.79 106.099L289.171 88.5171L285.552 70.9353L303.134 67.3166L320.716 63.6979L324.335 81.2798L327.953 98.8616L345.535 95.2429L363.117 91.6242L370.331 126.674L377.545 161.723L395.012 158.128L412.48 154.533L405.266 119.483L398.052 84.4339L415.634 80.8152L433.216 77.1965L447.667 147.41L462.118 217.623L444.536 221.241L426.955 224.86L430.573 242.442L434.192 260.024L451.774 256.405L469.356 252.786L472.951 270.254L476.546 287.722L458.964 291.34L441.382 294.959L448.596 330.009L455.81 365.058L438.342 368.653L420.875 372.248L424.493 389.83L428.112 407.412L463.162 400.198L498.211 392.984L501.83 410.566L505.448 428.148L452.817 438.98L400.186 449.813L403.781 467.281L407.376 484.748L389.794 488.367L372.213 491.986L375.831 509.567L379.45 527.149L274.187 548.814L168.925 570.479L161.711 535.43L154.497 500.38L137.029 503.975L119.562 507.571L126.776 542.62L133.989 577.67L116.408 581.288L98.8259 584.907L95.2072 567.325ZM228.419 503.373L224.824 485.906L207.242 489.524L189.661 493.143L193.256 510.611L196.851 528.078L214.433 524.46L232.015 520.841L228.419 503.373ZM368.617 474.518L365.022 457.05L382.604 453.432L400.186 449.813L392.949 414.649L385.711 379.486L403.293 375.867L420.875 372.248L413.661 337.199L406.447 302.149L423.915 298.554L441.382 294.959L437.787 277.491L434.192 260.024L399.143 267.238L364.093 274.452L360.474 256.87L356.856 239.288L391.905 232.074L426.955 224.86L423.336 207.278L419.717 189.696L402.25 193.292L384.782 196.887L381.163 179.305L377.545 161.723L359.963 165.342L342.381 168.961L335.167 133.911L327.953 98.8616L310.372 102.48L292.79 106.099L300.004 141.148L307.217 176.198L289.75 179.793L272.282 183.388L265.068 148.339L257.854 113.289L240.273 116.908L222.691 120.527L229.905 155.576L237.118 190.626L219.651 194.221L202.183 197.816L209.421 232.98L216.658 268.143L199.076 271.762L181.494 275.381L192.327 328.012L203.159 380.643L185.577 384.262L167.996 387.881L175.209 422.93L182.423 457.979L200.005 454.361L217.587 450.742L210.373 415.693L203.159 380.643L238.209 373.429L273.258 366.215L280.472 401.265L287.686 436.314L270.218 439.91L252.751 443.505L256.369 461.087L259.988 478.668L277.456 475.073L294.923 471.478L298.518 488.946L302.114 506.413L337.163 499.199L372.213 491.986L368.617 474.518ZM319.254 411.609L308.422 358.978L290.84 362.597L273.258 366.215L269.64 348.634L266.021 331.052L248.553 334.647L231.086 338.242L227.49 320.775L223.895 303.307L241.363 299.712L258.831 296.117L262.426 313.584L266.021 331.052L283.603 327.433L301.184 323.814L290.352 271.183L279.519 218.552L296.987 214.957L314.455 211.361L310.836 193.78L307.217 176.198L324.799 172.579L342.381 168.961L349.618 204.124L356.856 239.288L339.274 242.906L321.692 246.525L328.906 281.575L336.12 316.624L353.702 313.005L371.284 309.387L378.497 344.436L385.711 379.486L368.129 383.104L350.548 386.723L357.785 421.887L365.022 457.05L347.555 460.645L330.087 464.241L319.254 411.609ZM339.739 334.206L336.12 316.624L318.652 320.219L301.184 323.814L304.803 341.396L308.422 358.978L325.89 355.383L343.357 351.788L339.739 334.206ZM-40.1152 266.012L-43.7339 248.43L-8.57027 241.193L26.5934 233.956L22.9982 216.488L19.403 199.02L-15.7606 206.258L-50.9242 213.495L-47.3291 230.963L-43.7339 248.43L-61.2015 252.026L-78.6692 255.621L-75.0506 273.203L-71.4319 290.784L-53.9642 287.189L-36.4966 283.594L-40.1152 266.012ZM170.638 222.635L167.02 205.053L149.438 208.672L131.856 212.291L135.475 229.872L139.093 247.454L156.675 243.836L174.257 240.217L170.638 222.635ZM-117.428 245.39L-121.023 227.923L-138.491 231.518L-155.958 235.113L-152.363 252.581L-148.768 270.048L-131.3 266.453L-113.833 262.858L-117.428 245.39ZM93.0971 202.06L89.5019 184.593L72.0344 188.188L54.5667 191.783L58.1618 209.251L61.757 226.718L79.2247 223.123L96.6923 219.528L93.0971 202.06ZM71.4086 96.6836L67.7899 79.1017L50.3223 82.6969L32.8546 86.2921L36.4733 103.874L40.092 121.456L57.5597 117.861L75.0272 114.265L71.4086 96.6836ZM481.094 487.902L477.475 470.321L495.057 466.702L512.639 463.083L516.257 480.665L519.876 498.247L502.294 501.866L484.712 505.484L481.094 487.902ZM9.52309 329.102L5.90441 311.52L41.0681 304.283L76.2317 297.046L79.8504 314.627L83.4691 332.209L48.3054 339.447L13.1418 346.684L9.52309 329.102ZM-343.357 35.7944L-368.617 -86.936L-245.887 -112.196L-123.157 -137.456L-97.8965 -14.7261L-72.6363 108.004L-195.367 133.264L-318.097 158.525L-343.357 35.7944ZM-132.808 -7.42155L-150.855 -95.1024L-238.535 -77.056L-326.216 -59.0097L-308.17 28.6712L-290.123 116.352L-202.443 98.3055L-114.762 80.2592L-132.808 -7.42155ZM-273.258 21.3667L-284.091 -31.2647L-231.459 -42.0972L-178.828 -52.9297L-167.995 -0.29837L-157.163 52.3329L-209.794 63.1654L-262.425 73.9979L-273.258 21.3667ZM148.021 -65.3405L122.76 -188.071L245.491 -213.331L368.221 -238.591L393.481 -115.861L418.741 6.86926L296.011 32.1295L173.281 57.3897L148.021 -65.3405ZM358.341 -108.509L340.295 -196.19L252.614 -178.144L164.933 -160.098L182.979 -72.4167L201.026 15.264L288.706 -2.78232L376.387 -20.8287L358.341 -108.509ZM218.12 -79.7682L207.287 -132.4L259.918 -143.232L312.55 -154.065L323.382 -101.433L334.215 -48.802L281.583 -37.9695L228.952 -27.1369L218.12 -79.7682Z" fill="#4B4B4E"/>
</g>
</svg>
