<svg width="97" height="96" viewBox="0 0 97 96" fill="none" xmlns="http://www.w3.org/2000/svg">
<path d="M24 64.005V56.0099H31.995H39.9901V64.005V72H31.995H24V64.005ZM37.7143 63.9975V58.2857H32.0025H26.2907V63.9975V69.7093H32.0025H37.7143V63.9975ZM28.5665 64.005V60.5764H31.995H35.4236V64.005V67.4335H31.995H28.5665V64.005ZM44.5714 70.8547V69.7093H43.4261H42.2808V67.4261V65.1429H43.4261H44.5714V66.2882V67.4335H45.7168H46.8621V65.1429V62.8522H48H49.1379V61.7143V60.5764H46.8547H44.5714V59.4311V58.2857H48H51.4286V57.1478V56.0099H50.2832H49.1379V53.7192V51.4286H44.564H39.9901V52.5739V53.7192H38.8522H37.7143V52.5739V51.4286H36.5689H35.4236V52.5739V53.7192H34.2857H33.1478V51.4286V49.1379H30.8571H28.5665V50.2832V51.4286H29.7118H30.8571V52.5739V53.7192H29.7118H28.5665V52.5739V51.4286H26.2832H24V50.2832V49.1379H25.1453H26.2907V45.7093V42.2808H28.5739H30.8571V43.4261V44.5714H29.7118H28.5665V45.7168V46.8621H30.8571H33.1478V45.7168V44.5714H34.2857H35.4236V45.7168V46.8621H37.7069H39.9901V45.7168V44.5714H38.8522H37.7143V43.4261V42.2808H38.8522H39.9901V43.4261V44.5714H42.2808H44.5714V45.7168V46.8621H45.7168H46.8621V44.5714V42.2808H44.5714H42.2808V38.8522V35.4236H43.4261H44.5714V34.2857V33.1478H43.4261H42.2808V32.0025V30.8571H44.5714H46.8621V28.5739V26.2907H48H49.1379V25.1453V24H51.4286H53.7192V25.1453V26.2907H52.5739H51.4286V27.4286V28.5665H50.2832H49.1379V30.8571V33.1478H50.2832H51.4286V32.0025V30.8571H52.5739H53.7192V33.1404V35.4236H49.1453H44.5714V37.7069V39.9901H45.7168H46.8621V38.8522V37.7143H48H49.1379V38.8522V39.9901H50.2832H51.4286V38.8522V37.7143H52.5739H53.7192V41.1429V44.5714H52.5739H51.4286V43.4261V42.2808H50.2832H49.1379V44.5714V46.8621H51.4286H53.7192V48V49.1379H54.8646H56.0099V45.7093V42.2808H58.2932H60.5764V43.4261V44.5714H61.7143H62.8522V43.4261V42.2808H63.9975H65.1429V43.4261V44.5714H66.2882H67.4335V46.8547V49.1379H68.5714H69.7093V46.8547V44.5714H70.8547H72V49.1453V53.7192H70.8547H69.7093V54.8646V56.0099H70.8547H72V57.1478V58.2857H70.8547H69.7093V60.569V62.8522H68.5714H67.4335V63.9975V65.1429H69.7168H72V66.2882V67.4335H68.5714H65.1429V68.5714V69.7093H63.9975H62.8522V70.8547V72H55.995H49.1379V69.7168V67.4335H48H46.8621V69.7168V72H45.7168H44.5714V70.8547ZM53.7192 68.5714V67.4335H52.5739H51.4286V68.5714V69.7093H52.5739H53.7192V68.5714ZM62.8522 68.5714V67.4335H63.9975H65.1429V65.1429V62.8522H66.2882H67.4335V60.569V58.2857H68.5714H69.7093V57.1478V56.0099H67.4261H65.1429V54.8646V53.7192H67.4261H69.7093V52.5739V51.4286H68.5714H67.4335V50.2832V49.1379H66.2882H65.1429V46.8547V44.5714H63.9975H62.8522V46.8547V49.1379H61.7143H60.5764V46.8547V44.5714H59.4311H58.2857V46.8547V49.1379H57.1478H56.0099V51.4286V53.7192H54.8646H53.7192V57.1478V60.5764H52.5739H51.4286V62.8596V65.1429H52.5739H53.7192V62.8596V60.5764H56.0025H58.2857V62.8596V65.1429H57.1478H56.0099V66.2882V67.4335H57.1478H58.2857V68.5714V69.7093H60.569H62.8522V68.5714ZM60.5764 64.005V60.5764H59.4311H58.2857V59.4311V58.2857H57.1478H56.0099V57.1478V56.0099H57.1478H58.2857V57.1478V58.2857H59.4311H60.5764V54.8571V51.4286H61.7143H62.8522V50.2832V49.1379H63.9975H65.1429V51.4286V53.7192H63.9975H62.8522V56.0025V58.2857H63.9975H65.1429V60.569V62.8522H63.9975H62.8522V65.1429V67.4335H61.7143H60.5764V64.005ZM62.8522 59.4311V58.2857H61.7143H60.5764V59.4311V60.5764H61.7143H62.8522V59.4311ZM39.9901 50.2832V49.1379H42.2808H44.5714V48V46.8621H42.2808H39.9901V48V49.1379H38.8522H37.7143V50.2832V51.4286H38.8522H39.9901V50.2832ZM53.7192 50.2832V49.1379H52.5739H51.4286V50.2832V51.4286H52.5739H53.7192V50.2832ZM35.4236 48V46.8621H34.2857H33.1478V48V49.1379H34.2857H35.4236V48ZM49.1379 48V46.8621H48H46.8621V48V49.1379H48H49.1379V48ZM49.1379 41.1354V39.9901H48H46.8621V41.1354V42.2808H48H49.1379V41.1354ZM69.7093 70.8547V69.7093H70.8547H72V70.8547V72H70.8547H69.7093V70.8547ZM42.2808 54.8646V53.7192H44.5714H46.8621V54.8646V56.0099H44.5714H42.2808V54.8646ZM24 31.995V24H31.995H39.9901V31.995V39.9901H31.995H24V31.995ZM37.7143 32.0025V26.2907H32.0025H26.2907V32.0025V37.7143H32.0025H37.7143V32.0025ZM28.5665 31.995V28.5665H31.995H35.4236V31.995V35.4236H31.995H28.5665V31.995ZM56.0099 31.995V24H64.005H72V31.995V39.9901H64.005H56.0099V31.995ZM69.7093 32.0025V26.2907H63.9975H58.2857V32.0025V37.7143H63.9975H69.7093V32.0025ZM60.5764 31.995V28.5665H64.005H67.4335V31.995V35.4236H64.005H60.5764V31.995Z" fill="#EDEDF0"/>
<path fill-rule="evenodd" clip-rule="evenodd" d="M69.7093 54.9375H65.1429V54.8646V53.7192H67.4261H69.7093V54.8646V54.9375ZM67.4335 49.1379V50.2832V51.4286H68.5714H69.7093V52.5739V53.7192H70.8547H72V49.1453V44.5714H70.8547H69.7093V46.8547V49.1379H68.5714H67.4335ZM65.1429 49.1379H66.2882H67.4335V46.8547V44.5714H66.2882H65.1429V43.4261V42.2808H63.9975H62.8522V43.4261V44.5714H61.7143H60.5764V43.4261V42.2808H58.2932H56.0099V45.7093V49.1379H54.8646H53.7192V48V46.8621H51.4286H49.1379V44.5714V42.2808H50.2832H51.4286V43.4261V44.5714H52.5739H53.7192V41.1429V37.7143H52.5739H51.4286V38.8522V39.9901H50.2832H49.1379V38.8522V37.7143H48H46.8621V38.8522V39.9901H45.7168H44.5714V37.7069V35.4236H49.1453H53.7192V33.1404V30.8571H52.5739H51.4286V32.0025V33.1478H50.2832H49.1379V30.8571V28.5665H50.2832H51.4286V27.4286V26.2907H52.5739H53.7192V25.1453V24H51.4286H49.1379V25.1453V26.2907H48H46.8621V28.5739V30.8571H44.5714H42.2808V32.0025V33.1478H43.4261H44.5714V34.2857V35.4236H43.4261H42.2808V38.8522V42.2808H44.5714H46.8621V44.5714V46.8621H45.7168H44.5714V45.7168V44.5714H42.2808H39.9901V43.4261V42.2808H38.8522H37.7143V43.4261V44.5714H38.8522H39.9901V45.7168V46.8621H37.7069H35.4236V45.7168V44.5714H34.2857H33.1478V45.7168V46.8621H30.8571H28.5665V45.7168V44.5714H29.7118H30.8571V43.4261V42.2808H28.5739H26.2907V45.7093V49.1379H25.1453H24V50.2832V51.4286H26.2832H28.5665V52.5739V53.7192H29.7118H30.8571V52.5739V51.4286H29.7118H28.5665V50.2832V49.1379H30.8571H33.1478V51.4286V53.7192H34.2857H35.4236V52.5739V51.4286H36.5689H37.7143V52.5739V53.7192H38.8522H39.9901V52.5739V51.4286H44.564H49.1379V53.7192V54.9375H53.7192V53.7192H54.8646H56.0099V51.4286V49.1379H57.1478H58.2857V46.8547V44.5714H59.4311H60.5764V46.8547V49.1379H61.7143H62.8522V50.2832V51.4286H61.7143H60.5764V54.8571V54.9375H62.8522V53.7192H63.9975H65.1429V51.4286V49.1379ZM65.1429 49.1379H63.9975H62.8522V46.8547V44.5714H63.9975H65.1429V46.8547V49.1379ZM46.8621 54.9375V54.8646V53.7192H44.5714H42.2808V54.8646V54.9375H46.8621ZM39.9901 49.1379H42.2808H44.5714V48V46.8621H42.2808H39.9901V48V49.1379ZM39.9901 49.1379V50.2832V51.4286H38.8522H37.7143V50.2832V49.1379H38.8522H39.9901ZM33.1478 49.1379V48V46.8621H34.2857H35.4236V48V49.1379H34.2857H33.1478ZM46.8621 46.8621H48H49.1379V48V49.1379H48H46.8621V48V46.8621ZM46.8621 42.2808V41.1354V39.9901H48H49.1379V41.1354V42.2808H48H46.8621ZM53.7192 49.1379H52.5739H51.4286V50.2832V51.4286H52.5739H53.7192V50.2832V49.1379ZM24 24V31.995V39.9901H31.995H39.9901V31.995V24H31.995H24ZM37.7143 26.2907V32.0025V37.7143H32.0025H26.2907V32.0025V26.2907H32.0025H37.7143ZM28.5665 28.5665V31.995V35.4236H31.995H35.4236V31.995V28.5665H31.995H28.5665ZM56.0099 24V31.995V39.9901H64.005H72V31.995V24H64.005H56.0099ZM69.7093 26.2907V32.0025V37.7143H63.9975H58.2857V32.0025V26.2907H63.9975H69.7093ZM60.5764 28.5665V31.995V35.4236H64.005H67.4335V31.995V28.5665H64.005H60.5764Z" fill="#197CD8"/>
<line x1="9" y1="55.75" x2="88" y2="55.75" stroke="#197CD8" stroke-width="3"/>
<mask id="path-4-inside-1" fill="white">
<path fill-rule="evenodd" clip-rule="evenodd" d="M12.4302 0H24.1075V3H12.4302C7.45961 3 3.43018 7.02944 3.43018 12V24H0.430176V12C0.430176 5.37258 5.80276 0 12.4302 0ZM0.430176 72V84C0.430176 90.6274 5.80276 96 12.4302 96H24.1075V93H12.4302C7.45961 93 3.43018 88.9706 3.43018 84V72H0.430176ZM93.4302 72V84C93.4302 88.9706 89.4007 93 84.4302 93H72.1075V96H84.4302C91.0576 96 96.4302 90.6274 96.4302 84V72H93.4302ZM96.4302 24V12C96.4302 5.37258 91.0576 0 84.4302 0H72.1075V3H84.4302C89.4007 3 93.4302 7.02944 93.4302 12V24H96.4302Z"/>
</mask>
<path d="M24.1075 0H28.1075V-4H24.1075V0ZM24.1075 3V7H28.1075V3H24.1075ZM3.43018 24V28H7.43018V24H3.43018ZM0.430176 24H-3.56982V28H0.430176V24ZM0.430176 72V68H-3.56982V72H0.430176ZM24.1075 96V100H28.1075V96H24.1075ZM24.1075 93H28.1075V89H24.1075V93ZM3.43018 72H7.43018V68H3.43018V72ZM93.4302 72V68H89.4302V72H93.4302ZM72.1075 93V89H68.1075V93H72.1075ZM72.1075 96H68.1075V100H72.1075V96ZM96.4302 72H100.43V68H96.4302V72ZM96.4302 24V28H100.43V24H96.4302ZM72.1075 0V-4H68.1075V0H72.1075ZM72.1075 3H68.1075V7H72.1075V3ZM93.4302 24H89.4302V28H93.4302V24ZM24.1075 -4H12.4302V4H24.1075V-4ZM28.1075 3V0H20.1075V3H28.1075ZM12.4302 7H24.1075V-1H12.4302V7ZM7.43018 12C7.43018 9.23858 9.66875 7 12.4302 7V-1C5.25047 -1 -0.569824 4.8203 -0.569824 12H7.43018ZM7.43018 24V12H-0.569824V24H7.43018ZM0.430176 28H3.43018V20H0.430176V28ZM-3.56982 12V24H4.43018V12H-3.56982ZM12.4302 -4C3.59362 -4 -3.56982 3.16344 -3.56982 12H4.43018C4.43018 7.58172 8.0119 4 12.4302 4V-4ZM-3.56982 72V84H4.43018V72H-3.56982ZM-3.56982 84C-3.56982 92.8366 3.59362 100 12.4302 100V92C8.0119 92 4.43018 88.4183 4.43018 84H-3.56982ZM12.4302 100H24.1075V92H12.4302V100ZM28.1075 96V93H20.1075V96H28.1075ZM24.1075 89H12.4302V97H24.1075V89ZM12.4302 89C9.66875 89 7.43018 86.7614 7.43018 84H-0.569824C-0.569824 91.1797 5.25048 97 12.4302 97V89ZM7.43018 84V72H-0.569824V84H7.43018ZM3.43018 68H0.430176V76H3.43018V68ZM97.4302 84V72H89.4302V84H97.4302ZM84.4302 97C91.6099 97 97.4302 91.1797 97.4302 84H89.4302C89.4302 86.7614 87.1916 89 84.4302 89V97ZM72.1075 97H84.4302V89H72.1075V97ZM76.1075 96V93H68.1075V96H76.1075ZM84.4302 92H72.1075V100H84.4302V92ZM92.4302 84C92.4302 88.4183 88.8485 92 84.4302 92V100C93.2667 100 100.43 92.8366 100.43 84H92.4302ZM92.4302 72V84H100.43V72H92.4302ZM96.4302 68H93.4302V76H96.4302V68ZM92.4302 12V24H100.43V12H92.4302ZM84.4302 4C88.8485 4 92.4302 7.58172 92.4302 12H100.43C100.43 3.16344 93.2667 -4 84.4302 -4V4ZM72.1075 4H84.4302V-4H72.1075V4ZM76.1075 3V0H68.1075V3H76.1075ZM84.4302 -1H72.1075V7H84.4302V-1ZM97.4302 12C97.4302 4.8203 91.6099 -1 84.4302 -1V7C87.1916 7 89.4302 9.23858 89.4302 12H97.4302ZM97.4302 24V12H89.4302V24H97.4302ZM93.4302 28H96.4302V20H93.4302V28Z" fill="#197CD8" mask="url(#path-4-inside-1)"/>
</svg>
